<svg xmlns="http://www.w3.org/2000/svg" viewBox="0 0 90 90"><defs><style>.cls-3{fill:#bfd7e2}.cls-5{fill:#1b5a89}</style></defs><g id="moon"><g id="moon-2" data-name="moon"><circle id="back" cx="45" cy="45" r="42.5" fill="#073349"/><g id="moon-3" data-name="moon"><circle cx="45" cy="45" r="24.08" fill="#d7ebf4"/><circle class="cls-3" cx="46.09" cy="59.86" r="5.07"/><circle class="cls-3" cx="33.29" cy="40.07" r="5.07"/><circle class="cls-3" cx="59" cy="34.38" r="2.78"/><circle class="cls-3" cx="31.2" cy="47.72" r="1.23"/><circle class="cls-3" cx="38.37" cy="28.75" r="1.23"/><circle class="cls-3" cx="59.21" cy="46.49" r="1.23"/><circle class="cls-3" cx="51.16" cy="26.29" r="1.23"/><circle class="cls-3" cx="38.37" cy="51.69" r=".56"/><circle class="cls-3" cx="46.65" cy="28.75" r=".56"/><circle class="cls-3" cx="55.09" cy="26.85" r=".56"/><circle class="cls-3" cx="45.56" cy="40.74" r="1.98"/><circle class="cls-3" cx="59.22" cy="54.61" r="2.37"/><path d="M45 20.92c-.7 0-1.39 0-2.08.09a24.08 24.08 0 010 48c.68.06 1.38.09 2.08.09a24.08 24.08 0 000-48.17z" fill="#93afbc" opacity=".7"/></g><g id="stars"><path class="cls-5" d="M58 20.12a1 1 0 10-1-1 1 1 0 001 1"/><circle class="cls-5" cx="23.4" cy="19.13" r="1"/><circle class="cls-5" cx="70.68" cy="25.1" r="1"/><circle class="cls-5" cx="16.94" cy="31.07" r="1"/><circle class="cls-5" cx="19.93" cy="70.87" r="1"/><circle class="cls-5" cx="73.06" cy="57.81" r="1"/></g></g></g></svg>